<svg width="90.000000" height="40.000000" viewBox="0 0 90 40" fill="none" xmlns="http://www.w3.org/2000/svg" xmlns:xlink="http://www.w3.org/1999/xlink">
	<desc>
			Created with Pixso.
	</desc>
	<defs/>
	<path id="Logo" d="M54.6238 11.4074C54.6238 1.2948 54.8636 0 68.5684 0C82.2731 0 82.5129 1.2948 82.5129 11.4074C82.5129 21.52 82.2731 22.8148 68.5684 22.8148C66.3852 22.8148 64.5438 22.782 62.9905 22.6858L62.9905 35.5555C62.9905 38.0102 61.1176 40 58.8071 40C56.4967 40 54.6238 38.0102 54.6238 35.5555L54.6238 13.3333C54.6238 13.2581 54.6255 13.1833 54.629 13.1089C54.6246 12.5715 54.6238 12.0049 54.6238 11.4074ZM66.7765 15.0074L73.0376 11.9022C73.3116 11.7659 73.4486 11.5867 73.4486 11.4074C73.4486 11.2281 73.3116 11.0489 73.0376 10.9126L66.7765 7.8074C66.2285 7.53778 65.7794 7.84149 65.7794 8.48297L65.7794 14.3318C65.7794 14.9748 66.2285 15.277 66.7765 15.0074ZM8.33328 29.9496C6.8942 29.9496 5.64755 29.683 4.59335 29.1496Q3.61377 28.6461 2.84305 27.9206L2.84302 27.9206Q2.38934 27.4936 2.00803 26.9896C1.32196 26.0652 0.811584 25.0252 0.476898 23.8696Q0.392029 23.5612 0.322266 23.2493L0.322083 23.2485Q0 21.8084 0 20.2963Q0 18.36 0.517609 16.5736Q0.534637 16.5149 0.552216 16.4563Q1.1044 14.5896 2.15863 13.123C2.87817 12.1452 3.77341 11.3719 4.84436 10.8029C5.91528 10.2341 7.15356 9.94962 8.5592 9.94962C9.14487 9.94962 9.78073 10.0296 10.4668 10.1896C11.1696 10.3318 11.839 10.5541 12.4748 10.8563Q13.3953 11.2938 13.9885 12.0044L13.99 12.0063Q14.0107 12.0311 14.031 12.0563L12.7258 13.603C12.4079 13.2119 12.0063 12.8918 11.521 12.643C11.0358 12.3763 10.5254 12.1718 9.9899 12.0296C9.47116 11.8874 8.97754 11.8163 8.509 11.8163Q7.34872 11.8163 6.41165 12.2737L6.41159 12.2737Q6.17294 12.3901 5.94876 12.5363C5.21249 12.9985 4.59335 13.6296 4.09134 14.4296Q3.33835 15.6296 2.93674 17.123C2.68573 18.1185 2.56024 19.1318 2.56024 20.163C2.56024 21.763 2.80286 23.1496 3.28815 24.323C3.77341 25.4785 4.45947 26.3763 5.34634 27.0163C6.23325 27.6385 7.27908 27.9496 8.48389 27.9496C9.18671 27.9496 9.94806 27.843 10.768 27.6296C11.588 27.4163 12.433 27.0785 13.3031 26.6163L14.0812 28.1363C13.7131 28.4207 13.2864 28.6785 12.8011 28.9096C12.3326 29.123 11.8306 29.3096 11.2951 29.4696C10.7764 29.6296 10.2576 29.7452 9.73889 29.8163Q8.9859 29.9496 8.33328 29.9496ZM16.3409 10.2163L19.0266 10.2163L19.0266 29.6296L16.6923 29.6296L16.6923 11.9763C16.6923 11.9585 16.6588 11.8163 16.5919 11.5496C16.5417 11.283 16.4915 11.0074 16.4413 10.723C16.3911 10.4385 16.3576 10.2696 16.3409 10.2163ZM26.1696 10.2163L34.1515 23.2563C34.3021 23.5052 34.461 23.7719 34.6284 24.0563C34.7957 24.323 34.963 24.5807 35.1304 24.8296L35.0802 23.923C35.0634 23.603 35.0551 23.3008 35.0551 23.0163L35.0551 10.2163L36.9627 10.2163L36.9627 29.763L35.4818 29.763L26.1696 14.6163C26.0357 14.3852 25.8851 14.1452 25.7178 13.8963C25.5672 13.6296 25.4082 13.3807 25.2409 13.1496C25.2744 13.4341 25.2911 13.7274 25.2911 14.0296C25.3078 14.3141 25.3162 14.5985 25.3162 14.883L25.3162 29.6296L23.4085 29.6296L23.4085 11.9763L23.0572 10.2163L26.1696 10.2163ZM40.9503 10.2163L51.9191 10.2163L51.9191 12.0563L43.636 12.0563L43.636 18.7496L50.0617 18.7496L50.0617 20.563L43.636 20.563L43.636 27.7896L51.9191 27.7896L51.9191 29.6296L41.3017 29.6296L41.3017 11.9763L40.9503 10.2163ZM67.0486 25.1852L67.0486 30.2497C67.054 30.2426 67.0595 30.2356 67.065 30.2286C67.3809 29.8235 67.7567 29.511 68.1925 29.2911C68.6337 29.0654 69.1212 28.9525 69.6551 28.9525C70.0908 28.9525 70.483 29.0162 70.8316 29.1435C71.1802 29.265 71.4771 29.4618 71.7222 29.7338C71.9728 30.0058 72.1635 30.3588 72.2942 30.7928C72.4249 31.2211 72.4903 31.7448 72.4903 32.364L72.4903 38.5185L70.9705 38.5185L70.9705 32.3466C70.9705 31.8547 70.9024 31.4612 70.7663 31.1661C70.6301 30.8652 70.4313 30.6481 70.1698 30.515C69.9084 30.3762 69.587 30.3067 69.2057 30.3067C68.8298 30.3067 68.4867 30.3906 68.1762 30.5584C67.8711 30.7263 67.6069 30.9578 67.3836 31.2529C67.2561 31.4256 67.1444 31.6133 67.0486 31.8157L67.0486 38.5185L65.537 38.5185L65.537 25.1852L67.0486 25.1852ZM80.4648 25.1852L80.4648 38.5185L78.9451 38.5185L78.9451 25.1852L80.4648 25.1852ZM74.7617 26.6348C74.7617 26.3744 74.8353 26.1545 74.9823 25.9751C75.1349 25.7957 75.3582 25.706 75.6523 25.706C75.941 25.706 76.1616 25.7957 76.3141 25.9751C76.4721 26.1545 76.5511 26.3744 76.5511 26.6348C76.5511 26.8837 76.4721 27.0978 76.3141 27.2772C76.1616 27.4508 75.941 27.5376 75.6523 27.5376C75.3582 27.5376 75.1349 27.4508 74.9823 27.2772C74.8353 27.0978 74.7617 26.8837 74.7617 26.6348ZM86.5602 38.6921C85.9446 38.6921 85.3863 38.5822 84.8852 38.3623C84.3895 38.1366 83.9619 37.8212 83.6024 37.4161C83.2483 37.011 82.976 36.5307 82.7853 35.9751C82.5947 35.4196 82.4993 34.8119 82.4993 34.1522L82.4993 33.7876C82.4993 33.0237 82.6056 32.3438 82.818 31.7477C83.0304 31.1458 83.3191 30.6366 83.6841 30.2199C84.049 29.8033 84.463 29.4879 84.926 29.2737C85.389 29.0596 85.8684 28.9525 86.3641 28.9525C86.9959 28.9525 87.5406 29.0683 87.9982 29.2998C88.4612 29.5312 88.8398 29.8553 89.1339 30.272C89.428 30.6829 89.6459 31.169 89.7876 31.7303C89.9292 32.2859 90 32.8935 90 33.5533L90 34.2737L84.0205 34.2737C84.03 34.6743 84.0867 35.0533 84.1907 35.4109C84.3105 35.7986 84.4821 36.14 84.7054 36.4352C84.9342 36.7303 85.2093 36.9618 85.5306 37.1296C85.8575 37.2975 86.2279 37.3814 86.6418 37.3814C87.1757 37.3814 87.6278 37.2656 87.9982 37.0341C88.3686 36.8027 88.6927 36.493 88.9705 36.1053L89.8856 36.8779C89.6949 37.1846 89.4526 37.4769 89.1584 37.7546C88.8643 38.0324 88.502 38.2581 88.0717 38.4317C87.6469 38.6053 87.143 38.6921 86.5602 38.6921ZM76.3959 29.1262L76.3959 38.5185L74.8761 38.5185L74.8761 29.1262L76.3959 29.1262ZM84.0648 32.963L88.4884 32.963L88.4884 32.8414C88.4666 32.4248 88.3849 32.0197 88.2433 31.6262C88.1071 31.2326 87.8893 30.9086 87.5897 30.6539C87.2901 30.3993 86.8815 30.272 86.3641 30.272C86.0209 30.272 85.705 30.3501 85.4163 30.5064C85.1276 30.6568 84.8797 30.8825 84.6727 31.1834C84.4658 31.4844 84.3051 31.8519 84.1907 32.2859C84.1353 32.496 84.0933 32.7217 84.0648 32.963Z" fill="#FFFFFF" fill-opacity="1.000000" fill-rule="evenodd"/>
</svg>
